<svg height="34.844" preserveAspectRatio="xMidYMid" viewBox="0 0 147.438 34.844" width="147.438" xmlns="http://www.w3.org/2000/svg"><g fill-rule="evenodd"><path d="m.479 34.377h4.91c.364 0 .607-.113.728-.34l7.639-12.279c.04-.064.1-.097.182-.097.08 0 .141.033.182.097l7.578 12.279c.121.227.364.34.728.34h4.85c.323 0 .485-.113.485-.34 0-.097-.021-.177-.061-.242l-10.488-16.21c-.041-.098-.041-.195 0-.292l10.488-16.307c.081-.161.081-.299 0-.412s-.223-.17-.424-.17h-4.911c-.364 0-.606.113-.728.339l-7.517 12.279c-.041.066-.102.097-.182.097-.082 0-.142-.031-.182-.097l-7.639-12.279c-.121-.226-.364-.339-.728-.339h-4.91c-.324 0-.485.113-.485.339 0 .098.019.179.06.243l10.489 16.259c.08.097.08.194 0 .291l-10.489 16.259c-.081.162-.081.299 0 .412.081.114.222.17.425.17z" fill="#719367"/><path d="m141.516 20.642h-6.366c-.405 0-.606-.161-.606-.485v-3.009c0-.323.201-.486.606-.486h11.822c.404 0 .606.163.606.486v7.571c0 3.139-1.162 5.598-3.486 7.377-2.324 1.78-5.447 2.669-9.366 2.669-3.841 0-6.933-.898-9.276-2.693-2.345-1.796-3.517-4.166-3.517-7.11v-15.143c0-2.944 1.172-5.314 3.517-7.11 2.343-1.796 5.435-2.694 9.276-2.694 2.546 0 4.789.397 6.729 1.19s3.445 1.917 4.517 3.373c1.07 1.456 1.606 3.106 1.606 4.95v1.31c0 .324-.202.486-.606.486h-4.607c-.405 0-.607-.162-.607-.486v-1.31c0-1.618-.636-2.936-1.909-3.955-1.274-1.02-2.982-1.529-5.123-1.529-2.102 0-3.8.526-5.093 1.577-1.294 1.052-1.94 2.419-1.94 4.101v15.337c0 1.682.656 3.05 1.97 4.101 1.313 1.052 3.041 1.577 5.184 1.577 2.101 0 3.779-.485 5.032-1.456 1.252-.971 1.879-2.281 1.879-3.931v-4.514c0-.129-.081-.194-.242-.194zm-25.705 13.735h-4.729c-.324 0-.546-.129-.667-.388l-7.033-14.463c-.041-.097-.121-.146-.242-.146h-6.487c-.162 0-.243.065-.243.194v14.318c0 .324-.203.485-.606.485h-4.608c-.404 0-.606-.161-.606-.485v-33.003c0-.323.202-.485.606-.485h13.581c3.395 0 6.123.89 8.184 2.669 2.062 1.78 3.092 4.109 3.092 6.989 0 2.168-.627 4.028-1.879 5.581-1.254 1.553-2.971 2.621-5.154 3.203-.121.033-.162.114-.121.243l7.397 14.706.06.194c0 .259-.182.388-.545.388zm-5.578-24.267c0-1.714-.566-3.089-1.698-4.125-1.132-1.035-2.647-1.553-4.547-1.553h-7.335c-.162 0-.243.065-.243.194v10.872c0 .129.081.194.243.194h7.335c1.859 0 3.365-.51 4.517-1.529s1.728-2.37 1.728-4.053zm-52.593 9.998c.99 1.359 1.485 3.009 1.485 4.951.04 2.977-1.071 5.274-3.334 6.891-2.264 1.619-5.255 2.427-8.973 2.427h-12.61c-.405 0-.607-.161-.607-.485v-33.003c0-.323.202-.485.607-.485h11.943c3.92 0 6.992.769 9.215 2.305 2.223 1.537 3.335 3.778 3.335 6.722 0 3.462-1.779 5.872-5.335 7.231-.203.097-.203.179 0 .243 1.858.777 3.283 1.844 4.274 3.203zm-6.487-14.244c-1.193-.954-2.84-1.432-4.941-1.432h-6.548c-.162 0-.242.065-.242.194v10.241c0 .129.08.194.242.194h6.548c2.101 0 3.748-.461 4.941-1.383 1.192-.923 1.788-2.192 1.788-3.81 0-1.715-.596-3.05-1.788-4.004zm.333 14.463c-1.212-1.051-2.87-1.578-4.971-1.578h-6.851c-.162 0-.242.066-.242.194v11.163c0 .13.08.194.242.194h6.912c2.101 0 3.748-.509 4.941-1.529 1.191-1.019 1.788-2.418 1.788-4.198 0-1.779-.606-3.195-1.819-4.246z" fill="#010101"/><path d="m64.844 34.844v-4.782h21.468v4.782zm0-20.157h21.468v4.813h-21.468zm0-14.374h21.468v4.781h-21.468z"/></g></svg>